<svg xmlns="http://www.w3.org/2000/svg" width="44" height="45" viewBox="0 0 44 45">
    <g fill="none" fill-rule="evenodd">
        <g fill="#FAFAFA" fill-rule="nonzero">
            <g>
                <g>
                    <path d="M.154 5.117C.154 2.383 2.441.159 5.251.159H38.75c2.81 0 5.096 2.287 5.096 5.097V30.43c0 2.81-2.286 5.096-5.096 5.096H27.975c-2.398 0-3.984-1.426-5.546-3.246l-4.495-5.238c-1.439-1.678-1.054-3.034-.822-3.54.233-.505 1.012-1.68 3.222-1.68l8.833.012c1.138 0 2.064-.926 2.064-2.065v-7.68c0-1.139-.926-2.065-2.064-2.065l-14.94-.012c-.837 0-1.516-.679-1.516-1.516s.679-1.516 1.516-1.516l14.94.013c2.81 0 5.096 2.286 5.096 5.096v7.68c0 2.81-2.287 5.096-5.096 5.096l-8.833-.012c-.099 0-.184.005-.258.012.043.06.095.128.159.203l4.494 5.238c1 1.166 1.71 2.189 3.246 2.189H38.75c1.139 0 2.065-.927 2.065-2.065V5.256c0-1.139-.926-2.065-2.065-2.065H5.25c-1.138 0-2.064.864-2.064 1.926 0 1.195.613 1.926.947 1.926h4.99c.836 0 1.515.679 1.515 1.516s-.679 1.515-1.516 1.515H4.133c-2.231 0-3.979-2.177-3.979-4.957z" transform="translate(-26 -63) translate(26 63)"/>
                    <path d="M.154 30.43V13.255c0-.837.679-1.516 1.516-1.516s1.516.678 1.516 1.516V30.43c0 1.138.926 2.064 2.064 2.064h2.418c1.138 0 2.065-.926 2.065-2.064V19.497c0-2.81 2.286-5.096 5.096-5.096h8.714c.837 0 1.515.679 1.515 1.516s-.678 1.515-1.515 1.515h-8.714c-1.139 0-2.065.926-2.065 2.065V30.43c0 2.81-2.286 5.096-5.096 5.096H5.25c-2.81 0-5.096-2.286-5.096-5.096z" transform="translate(-26 -63) translate(26 63)"/>
                </g>
                <path d="M42.33 37.812c.837 0 1.516.679 1.516 1.516s-.679 1.515-1.516 1.515H26.282l-3.21 3.21c-.284.285-.67.444-1.072.444s-.788-.16-1.072-.444l-3.21-3.21H1.67c-.837 0-1.516-.678-1.516-1.515 0-.837.68-1.516 1.516-1.516h16.676c.402 0 .788.16 1.072.444L22 40.838l2.583-2.582c.284-.284.67-.444 1.071-.444H42.33z" transform="translate(-26 -63) translate(26 63)"/>
            </g>
        </g>
    </g>
</svg>
